<svg width="51" height="51" viewBox="0 0 51 51" fill="none" xmlns="http://www.w3.org/2000/svg">
<path d="M40.8001 34.6729L11.3334 34.9187C10.5514 34.9258 9.91675 34.2847 9.91675 33.502V28.7208C9.91675 28.3451 10.066 27.9847 10.3317 27.7191C10.5974 27.4534 10.9577 27.3041 11.3334 27.3041L41.0055 27.7341L40.8001 34.6729Z" fill="#A57939"/>
<path d="M23.2899 35.0413H10.6249C9.84292 35.0413 9.20825 35.5378 9.20825 36.1505V39.479C9.20825 40.0917 9.84292 40.5882 10.6249 40.5882H40.3749C41.1569 40.5882 41.7916 40.0917 41.7916 39.479V36.1505C41.7916 35.5378 41.1576 35.0413 40.3749 35.0413H27.7737" fill="#F4AA41"/>
<path d="M34 34.9208H40.375C41.157 34.9208 41.7917 35.4287 41.7917 36.0549V39.457C41.7917 40.0832 41.1577 40.591 40.375 40.591H34V34.9208Z" fill="#E27022"/>
<path d="M41.7916 19.5004C41.7916 20.0132 41.1576 20.4297 40.3749 20.4297H10.6249C9.84292 20.4297 9.20825 20.014 9.20825 19.5004C10.2594 14.2127 17.1487 10.1292 25.4999 10.1292C33.8512 10.1292 40.7433 14.2127 41.7916 19.5004Z" fill="#F4AA41"/>
<path d="M29.75 10.7242C31.9274 13.061 33.4022 16.2655 34 20.4071H40.375C41.157 20.4071 41.7917 20.0005 41.7917 19.4997C40.7292 14.399 34.2408 11.3326 29.75 10.7235V10.7242Z" fill="#E27022"/>
<path d="M30.947 26.8125H19.3091L25.128 32.6315L30.947 26.8125Z" fill="#FCEA2B"/>
<path d="M34 27.2567V34.9208H39.6667C40.0424 34.9208 40.4027 34.7716 40.6684 34.5059C40.9341 34.2402 41.0833 33.8799 41.0833 33.5042V28.7229C41.0833 28.3472 40.9341 27.9869 40.6684 27.7212C40.4027 27.4555 40.0424 27.3062 39.6667 27.3062H34.9449" fill="#6A462F"/>
<path fill-rule="evenodd" clip-rule="evenodd" d="M11.5671 22.1H39.4401V23.5825H11.5671V22.1Z" fill="#EA5A47" stroke="#EA5A47" stroke-width="0.5" stroke-linecap="round" stroke-linejoin="round"/>
<path fill-rule="evenodd" clip-rule="evenodd" d="M34.7366 22.1H39.4548V23.6059H34.7366V22.1Z" fill="#D22F27" stroke="#D22F27" stroke-width="0.5" stroke-linecap="round" stroke-linejoin="round"/>
<path d="M11.2555 26.2721L39.9997 26.0008C41.5665 25.6573 41.784 25.2783 41.9348 24.395C40.6166 25.2917 39.5966 25.3002 38.6892 25.4136C37.0466 25.4058 35.5287 25.4313 34.4867 24.1032L30.2388 23.7873L27.1661 25.143L24.0933 25.0977L20.704 23.9218L17.0886 23.7419C16.223 24.7867 14.5939 25.0892 13.6086 25.4136C12.097 25.1359 10.4792 25.9866 9.07666 24.3957C9.42374 25.4851 9.43012 25.7932 11.2583 26.2728L11.2555 26.2721Z" fill="#B1CC33" stroke="#B1CC33" stroke-width="0.5" stroke-linejoin="round"/>
<path d="M34.7224 26.8033L39.991 26.0001C41.5578 25.6565 41.7753 25.2769 41.9262 24.3943C40.608 25.291 39.588 25.2995 38.6806 25.4129C37.038 25.4051 37.2016 25.3987 35.7913 24.6918L34.7224 24.0734V26.8033Z" fill="#5C9E31" stroke="#5C9E31" stroke-width="0.5" stroke-linejoin="round"/>
<path fill-rule="evenodd" clip-rule="evenodd" d="M34.7366 22.1H37.7009V23.6059H34.7366V22.1Z" fill="#D22F27" stroke="#D22F27" stroke-width="0.5" stroke-linecap="round"/>
<path d="M23.2898 34.9208H11.3332C10.9574 34.9208 10.5971 34.7716 10.3314 34.5059C10.0658 34.2402 9.9165 33.8799 9.9165 33.5042V28.7229C9.9165 28.3472 10.0658 27.9869 10.3314 27.7212C10.5971 27.4555 10.9574 27.3062 11.3332 27.3062H39.6665C40.0422 27.3062 40.4026 27.4555 40.6682 27.7212C40.9339 27.9869 41.0832 28.3472 41.0832 28.7229V33.5042C41.0832 33.8799 40.9339 34.2402 40.6682 34.5059C40.4026 34.7716 40.0422 34.9208 39.6665 34.9208H27.7736H23.2898Z" stroke="black" stroke-width="0.5" stroke-miterlimit="10" stroke-linecap="round" stroke-linejoin="round"/>
<path d="M23.2899 35.0413H10.6249C9.84292 35.0413 9.20825 35.5378 9.20825 36.1505V39.479C9.20825 40.0917 9.84292 40.5882 10.6249 40.5882H40.3749C41.1569 40.5882 41.7916 40.0917 41.7916 39.479V36.1505C41.7916 35.5378 41.1576 35.0413 40.3749 35.0413H27.7737H23.2899Z" stroke="black" stroke-width="0.5" stroke-miterlimit="10" stroke-linecap="round" stroke-linejoin="round"/>
<path d="M41.7916 19.7837C41.7916 20.2966 41.1576 20.7131 40.3749 20.7131H10.6249C9.84292 20.7131 9.20825 20.2973 9.20825 19.7837C10.2594 14.496 17.1487 10.4125 25.4999 10.4125C33.8512 10.4125 40.7433 14.496 41.7916 19.7837Z" stroke="black" stroke-width="0.5" stroke-miterlimit="10" stroke-linecap="round" stroke-linejoin="round"/>
<path d="M30.6282 27.5754H20.3716L25.5013 32.6499L30.6282 27.5754Z" stroke="black" stroke-width="0.5" stroke-miterlimit="10" stroke-linecap="round" stroke-linejoin="round"/>
<path d="M41.9262 24.1542C41.3864 24.4347 40.9643 24.735 40.1646 24.8639C39.1956 25.1182 37.9135 25.0198 36.9048 24.8639C35.5391 24.6436 35.2742 23.9247 33.6451 23.6541C32.564 23.4986 31.4663 23.4986 30.3853 23.6541C28.7569 23.9247 28.4919 24.6429 27.1256 24.8639C26.1169 25.0198 24.8745 25.0198 23.8658 24.8639C22.5001 24.6436 22.2352 23.9247 20.6061 23.6541C19.525 23.4986 18.4273 23.4986 17.3463 23.6541C15.7179 23.9247 15.4529 24.6429 14.0866 24.8639C13.0779 25.0198 11.8355 25.0198 10.8268 24.8639C10.0271 24.735 9.60494 24.4347 9.06519 24.1542" stroke="black" stroke-width="0.5" stroke-miterlimit="10" stroke-linecap="round" stroke-linejoin="round"/>
</svg>
