<svg width="45" height="45" viewBox="0 0 45 45" fill="none" xmlns="http://www.w3.org/2000/svg">
<path d="M32.665 12.3356C32.9625 12.6344 33.2375 12.9469 33.5031 13.2644L35.3156 9.68375C28.2381 2.60562 16.7612 2.60562 9.68433 9.68375L11.4968 13.2644C11.7625 12.9469 12.0375 12.6344 12.335 12.3356C17.95 6.72125 27.05 6.72125 32.665 12.3356Z" fill="#F4AA41"/>
<path d="M33.5032 13.2644C33.2374 12.9428 32.9578 12.6329 32.6651 12.3356C27.0501 6.72125 17.9501 6.72125 12.3351 12.3356C12.0376 12.6344 11.7626 12.9469 11.4963 13.2644L22.5001 35L33.5032 13.2644Z" fill="#FCEA2B"/>
<path d="M19.375 18.125C21.1009 18.125 22.5 16.7259 22.5 15C22.5 13.2741 21.1009 11.875 19.375 11.875C17.6491 11.875 16.25 13.2741 16.25 15C16.25 16.7259 17.6491 18.125 19.375 18.125Z" fill="#EA5A47"/>
<path d="M27.5 16.875C28.5355 16.875 29.375 16.0355 29.375 15C29.375 13.9645 28.5355 13.125 27.5 13.125C26.4645 13.125 25.625 13.9645 25.625 15C25.625 16.0355 26.4645 16.875 27.5 16.875Z" fill="#EA5A47"/>
<path d="M23.125 24.375C24.1605 24.375 25 23.5355 25 22.5C25 21.4645 24.1605 20.625 23.125 20.625C22.0895 20.625 21.25 21.4645 21.25 22.5C21.25 23.5355 22.0895 24.375 23.125 24.375Z" fill="#EA5A47"/>
<path d="M32.665 12.3356C32.9625 12.6344 33.2375 12.9469 33.5031 13.2644L35.3156 9.68375C28.2381 2.60562 16.7612 2.60562 9.68433 9.68375L11.4968 13.2644C11.7625 12.9469 12.0375 12.6344 12.335 12.3356C17.95 6.72125 27.05 6.72125 32.665 12.3356Z" stroke="black" stroke-width="0.5" stroke-miterlimit="10" stroke-linecap="round" stroke-linejoin="round"/>
<path d="M33.503 13.2644C33.2372 12.9428 32.9575 12.6329 32.6648 12.3356C27.0498 6.72124 17.9498 6.72124 12.3348 12.3356C12.0373 12.6344 11.7623 12.9469 11.4961 13.2644L22.4998 35L33.503 13.2644V13.2644Z" stroke="black" stroke-width="0.5" stroke-miterlimit="10" stroke-linecap="round" stroke-linejoin="round"/>
<path d="M19.375 18.125C21.1009 18.125 22.5 16.7259 22.5 15C22.5 13.2741 21.1009 11.875 19.375 11.875C17.6491 11.875 16.25 13.2741 16.25 15C16.25 16.7259 17.6491 18.125 19.375 18.125Z" stroke="black" stroke-width="0.5" stroke-miterlimit="10" stroke-linecap="round" stroke-linejoin="round"/>
<path d="M27.5 16.875C28.5355 16.875 29.375 16.0355 29.375 15C29.375 13.9645 28.5355 13.125 27.5 13.125C26.4645 13.125 25.625 13.9645 25.625 15C25.625 16.0355 26.4645 16.875 27.5 16.875Z" stroke="black" stroke-width="0.5" stroke-miterlimit="10" stroke-linecap="round" stroke-linejoin="round"/>
<path d="M23.125 24.375C24.1605 24.375 25 23.5355 25 22.5C25 21.4645 24.1605 20.625 23.125 20.625C22.0895 20.625 21.25 21.4645 21.25 22.5C21.25 23.5355 22.0895 24.375 23.125 24.375Z" stroke="black" stroke-width="0.5" stroke-miterlimit="10" stroke-linecap="round" stroke-linejoin="round"/>
</svg>
