<svg width="36" height="36" viewBox="0 0 36 36" fill="none" xmlns="http://www.w3.org/2000/svg">
<path d="M27.9336 6.42094C27.5792 5.35219 26.4908 4.08656 25.2758 3.825C24.7808 3.71813 24.0327 3.73219 23.383 3.77438L23.082 3.79125C21.6814 3.86156 20.3005 4.13156 19.1361 4.3875C16.2111 5.03156 12.898 5.76 9.7761 6.81469C9.5286 6.89906 9.27267 6.98344 9.0111 7.06781C7.31235 7.62187 5.38579 8.24906 4.00485 9.47813C3.20048 10.1953 2.56204 11.1994 2.15985 12.375C1.6086 13.995 1.52704 15.7922 1.93204 17.4319C2.68017 20.4778 4.64329 20.9137 6.7161 21.375C6.93829 21.4228 7.17173 21.4734 7.40798 21.5297C8.51329 21.7913 9.63829 21.9234 10.7464 21.9234C15.5811 21.9234 19.7183 19.485 23.5461 16.9875C25.0845 15.9806 26.2067 15.0356 27.0645 14.0175C28.7464 12.0319 28.7127 8.77219 27.9336 6.42094Z" fill="#E4E3DE"/>
<path d="M27.7538 5.97938C27.2476 6.12563 26.7441 6.27469 26.2379 6.42094C21.0629 7.93125 17.6063 9.73688 13.0698 12.645C11.8323 13.4381 10.4766 14.9091 10.0266 16.3125C9.63569 17.5331 9.46694 18.5906 8.90444 19.7437C8.49663 20.5791 7.67538 21.0544 6.78101 21.3891C6.98632 21.4341 7.19444 21.4791 7.41382 21.5325C8.51913 21.7941 9.64413 21.9263 10.7523 21.9263C15.5869 21.9263 19.7241 19.4878 23.5519 16.9903C25.0904 15.9834 26.2126 15.0384 27.0704 14.0203C28.7494 12.0347 28.7157 8.77219 27.9366 6.42094C27.8888 6.27469 27.8241 6.12844 27.7538 5.97938Z" fill="#CDCBBF"/>
<path d="M0.703053 9.35438C0.258678 10.3725 0.0589904 11.61 0.50899 12.6619C1.01805 13.8488 2.18805 13.9641 3.3018 14.2144C5.81618 14.7825 9.14055 15.9384 11.714 15.3534C13.2665 15.0019 14.7796 13.9697 16.1577 13.2075C19.4512 11.3794 22.7024 9.45563 26.1168 7.84969C26.924 7.47 29.1121 6.94125 29.1037 5.80219C29.1009 5.39719 29.1037 4.99219 29.1037 4.58719C29.1037 3.75469 28.9602 2.6775 28.1727 2.21063C27.7171 1.94063 27.149 1.78031 26.6456 1.62C25.844 1.36406 25.0312 1.08281 24.2212 0.863438C21.8615 0.216563 19.3246 -0.0956247 16.9002 0.334688C12.3946 1.13906 8.39805 3.09375 4.69962 5.7375C3.63368 6.49688 2.52555 7.22531 1.59743 8.15625C1.14743 8.60625 0.871803 8.96906 0.703053 9.35438Z" fill="#FAC11D"/>
<path d="M28.1756 2.20781C28.0096 2.10937 27.8296 2.03062 27.644 1.95469C28.0096 3.15 24.1846 4.4775 22.9753 5.01187C20.354 6.17344 15.1425 8.17875 13.1625 10.2206C12.6421 10.7578 11.534 12.2991 11.3175 13.005C11.0362 13.9078 10.4681 15.1284 9.02808 15.4462C9.96745 15.5447 10.8843 15.5391 11.7196 15.3506C13.2721 14.9991 14.7853 13.9669 16.1634 13.2047C19.4568 11.3766 22.7081 9.45281 26.1224 7.84687C26.9296 7.46719 29.1178 6.93844 29.1093 5.79937C29.1065 5.39437 29.1093 4.98937 29.1093 4.58437C29.1065 3.75187 28.9603 2.67469 28.1756 2.20781Z" fill="#E4A724"/>
<path d="M8.34455 4.78969C10.2992 5.02594 12.0599 5.32125 14.4139 5.97656C16.8974 6.66844 17.7889 7.50375 18.0983 10.0406C18.4133 12.6281 18.9139 16.5516 17.7777 19.0266C17.4824 19.665 17.0605 20.3063 16.6105 20.8097C16.9508 20.8997 19.6142 19.9603 20.7871 19.0828C22.7333 17.6288 23.0877 15.8091 23.1102 13.5253C23.1327 11.3963 22.9358 7.80188 22.2495 5.93438C21.6702 4.35375 20.1064 3.77719 18.6102 3.31312C17.5358 2.98125 15.1649 2.33719 13.2383 2.14875C11.908 2.01656 10.7661 2.25281 10.4989 2.34281C9.8183 2.57062 8.5133 3.30187 7.48955 3.91219C6.74705 4.35656 6.12549 4.75875 6.12549 4.75875C6.12549 4.75875 7.15205 4.64625 8.34455 4.78969Z" fill="#2F2F2F"/>
<path d="M35.2293 20.3625C34.8749 19.2938 33.7864 18.0281 32.5714 17.7666C32.0764 17.6597 31.3283 17.6738 30.6786 17.7159L30.3777 17.7328C28.9771 17.8031 27.5961 18.0731 26.4318 18.3291C23.5068 18.9731 20.1936 19.7016 17.0718 20.7563C16.8243 20.8406 16.5683 20.925 16.3068 21.0094C14.608 21.5662 12.6814 22.1934 11.3005 23.4225C10.4961 24.1397 9.85769 25.1438 9.45551 26.3194C8.90426 27.9394 8.8227 29.7366 9.2277 31.3763C9.97582 34.4222 11.9361 34.8581 14.0118 35.3194C14.2339 35.3672 14.4674 35.4178 14.7036 35.4741C15.8089 35.7356 16.9339 35.8678 18.0421 35.8678C22.8768 35.8678 27.0139 33.4294 30.8418 30.9319C32.3802 29.925 33.5024 28.98 34.3602 27.9619C36.0421 25.9734 36.0083 22.7138 35.2293 20.3625Z" fill="#E4E3DE"/>
<path d="M35.0463 19.9209C34.54 20.0672 34.0366 20.2163 33.5304 20.3625C28.3554 21.8728 23.0313 23.4563 18.8266 26.8313C17.8169 27.6413 16.8382 28.6256 16.5682 29.8912C16.2982 31.1428 16.7594 32.535 16.1969 33.6881C15.7891 34.5234 14.9679 34.9987 14.0735 35.3334C14.2788 35.3784 14.4869 35.4234 14.7063 35.4769C15.8116 35.7384 16.9366 35.8706 18.0447 35.8706C22.8794 35.8706 27.0166 33.4322 30.8444 30.9347C32.3829 29.9278 33.505 28.9828 34.3629 27.9647C36.0419 25.9791 36.0082 22.7166 35.2291 20.3653C35.1813 20.2191 35.1194 20.07 35.0463 19.9209Z" fill="#CDCBBF"/>
<path d="M7.97328 24.2831C7.52047 25.6247 8.04641 27.0394 9.59047 26.9494C11.368 26.8481 13.2805 26.9016 15.0298 27.2672C16.2027 27.5119 17.3445 27.9197 18.5145 28.1559C19.1558 28.2853 19.9573 28.4203 20.6267 28.2741C21.1808 28.1531 21.6702 27.7341 22.1708 27.4809C24.2464 26.4291 26.1842 25.1859 28.2852 24.1847C29.5902 23.5631 30.8755 22.905 32.1664 22.2581C33.2239 21.7294 34.9339 21.3019 35.4486 20.0813C36.6242 17.3166 32.8273 15.1875 30.6758 14.6644C28.2823 14.0822 25.377 13.8825 22.9752 14.4731C21.2089 14.9062 19.4539 15.4266 17.7692 16.1297C16.1239 16.8187 14.7852 17.7862 13.3086 18.7284C11.773 19.71 10.1586 20.9672 8.99422 22.3819C8.58078 22.8881 8.21797 23.5603 7.97328 24.2831Z" fill="#EC6C30"/>
<path d="M33.837 16.1522C34.093 16.5909 33.9411 17.4066 33.6345 17.8003C33.1058 18.4809 31.2777 19.2712 30.6364 19.6059C28.9827 20.4637 24.9439 21.9572 23.7514 22.7362C22.407 23.6109 20.4749 24.9722 19.2908 26.0522C18.3317 26.9269 17.367 27.4134 16.1858 27.5541C16.962 27.765 17.7327 28.0013 18.5145 28.1588C19.1558 28.2881 19.9574 28.4231 20.6267 28.2769C21.1808 28.1559 21.6702 27.7369 22.1708 27.4838C24.2464 26.4319 26.1842 25.1887 28.2852 24.1875C29.5902 23.5659 30.8755 22.9078 32.1664 22.2609C33.2239 21.7322 34.9339 21.3047 35.4486 20.0841C36.1208 18.5063 35.173 17.1366 33.837 16.1522Z" fill="#D65B29"/>
<path d="M27.4414 14.9484C28.6845 15.4547 29.6436 16.6106 29.9108 17.9269C29.9248 17.9916 29.9361 18.0591 29.922 18.1266C29.9023 18.2166 29.8292 18.2897 29.7504 18.3375C29.4608 18.5034 29.0754 18.3572 28.8504 18.1097C28.6254 17.8622 28.5129 17.5359 28.3639 17.235C28.1473 16.7962 27.8464 16.3997 27.4808 16.0762C27.3148 15.93 27.1292 15.7837 27.0589 15.5756C26.9829 15.3591 27.0814 14.895 27.4414 14.9484Z" fill="#F4865C"/>
<path d="M22.3874 15.4969C23.2593 16.3772 23.9962 17.3897 24.5643 18.4894C24.8118 18.9675 25.0115 19.6031 24.9159 20.1347C24.8231 20.6634 24.5362 20.9391 24.0215 20.7816C23.6671 20.6831 23.4787 19.5581 23.1974 18.6891C23.0343 18.1856 22.5646 17.3081 22.2468 16.8834C21.929 16.4587 21.4959 16.02 21.5015 15.4884C21.479 15.2888 21.8362 15.0975 22.3874 15.4969Z" fill="#F4865C"/>
<path d="M18.1377 16.8413C18.433 16.9903 18.6186 17.2575 18.8155 17.5219C18.9308 17.6794 19.0264 17.8509 19.1192 18.0225C19.8392 19.3331 20.5817 20.7619 20.3764 22.2412C20.3483 22.4437 20.2977 22.6519 20.1739 22.8178C20.0502 22.9809 19.8364 23.0906 19.6367 23.04C19.3695 22.9472 19.2233 21.9825 19.018 21.4566C18.9364 21.2484 18.8548 21.0375 18.7845 20.8266C18.4583 19.8591 18.3373 18.8156 17.8536 17.9213C17.7298 17.6906 17.5752 17.4516 17.5977 17.1928C17.6145 16.9256 17.9295 16.6866 18.1377 16.8413Z" fill="#F4865C"/>
<path d="M13.5027 19.8141C13.5308 19.3359 14.1468 19.485 14.2733 19.8394C14.4702 20.3906 14.5546 20.8941 14.8696 21.3863C15.4433 22.2778 15.5924 22.815 15.5727 23.7881C15.5699 23.9541 15.5643 24.1256 15.4939 24.2775C15.3252 24.6431 14.7486 24.7219 14.4871 24.4125C14.2508 24.1341 14.3155 23.7206 14.2705 23.3578C14.2171 22.9247 13.9949 22.5366 13.8318 22.1344C13.5139 21.3328 13.348 20.6634 13.5027 19.8141Z" fill="#F4865C"/>
</svg>
